<svg width="768" height="384" viewBox="0 0 768 384" fill="none" xmlns="http://www.w3.org/2000/svg">
<rect width="768" height="384" fill="#71717A"/>
<path d="M198.968 172V169.987C200.585 169.918 201.772 169.781 202.529 169.574C203.321 169.333 203.837 168.903 204.078 168.284C204.318 167.665 204.439 166.753 204.439 165.548V141.91C204.439 140.637 204.301 139.708 204.026 139.123C203.785 138.503 203.269 138.09 202.478 137.884C201.721 137.643 200.551 137.505 198.968 137.471V135.458C200.207 135.492 201.635 135.527 203.252 135.561C204.903 135.596 206.658 135.613 208.516 135.613C210.959 135.613 213.075 135.596 214.865 135.561C216.654 135.527 218.099 135.492 219.2 135.458V137.471C217.17 137.505 215.656 137.643 214.658 137.884C213.695 138.09 213.058 138.503 212.749 139.123C212.439 139.742 212.284 140.671 212.284 141.91V166.116C212.284 167.148 212.353 167.94 212.491 168.49C212.663 169.006 213.007 169.368 213.523 169.574C214.073 169.746 214.899 169.832 216 169.832H217.394C218.873 169.832 220.198 169.626 221.368 169.213C222.572 168.766 223.622 168.077 224.516 167.148C225.445 166.219 226.271 165.049 226.994 163.639C227.751 162.194 228.439 160.473 229.058 158.477H231.174C230.899 160.817 230.693 163.123 230.555 165.394C230.452 167.63 230.417 169.832 230.452 172C228.972 171.931 227.183 171.897 225.084 171.897C222.985 171.862 220.439 171.845 217.445 171.845C213.351 171.845 209.738 171.862 206.607 171.897C203.475 171.897 200.929 171.931 198.968 172ZM248.874 172.723C246.293 172.723 244.005 172.224 242.009 171.226C240.013 170.194 238.448 168.645 237.312 166.581C236.177 164.482 235.609 161.849 235.609 158.684C235.609 155.518 236.177 152.886 237.312 150.787C238.448 148.688 240.013 147.14 242.009 146.142C244.005 145.11 246.293 144.594 248.874 144.594C251.489 144.594 253.777 145.11 255.738 146.142C257.699 147.14 259.248 148.688 260.383 150.787C261.519 152.886 262.086 155.518 262.086 158.684C262.086 161.849 261.519 164.482 260.383 166.581C259.248 168.645 257.699 170.194 255.738 171.226C253.777 172.224 251.489 172.723 248.874 172.723ZM248.874 170.71C250.525 170.71 251.884 169.763 252.951 167.871C254.052 165.944 254.603 162.882 254.603 158.684C254.603 154.417 254.052 151.338 252.951 149.445C251.884 147.518 250.525 146.555 248.874 146.555C247.188 146.555 245.811 147.518 244.745 149.445C243.678 151.338 243.145 154.417 243.145 158.684C243.145 162.882 243.678 165.944 244.745 167.871C245.811 169.763 247.188 170.71 248.874 170.71ZM266.392 172V169.987C268.25 169.953 269.523 169.677 270.211 169.161C270.934 168.611 271.295 167.647 271.295 166.271V151.871C271.295 150.254 270.917 149.118 270.16 148.465C269.437 147.776 268.181 147.398 266.392 147.329V145.316C267.356 145.351 268.164 145.385 268.818 145.419C269.506 145.454 270.246 145.471 271.037 145.471C273.859 145.471 276.319 145.23 278.418 144.748V165.858C278.418 167.372 278.882 168.439 279.811 169.058C280.775 169.643 282.444 169.953 284.818 169.987V172C284.164 171.966 283.287 171.948 282.186 171.948C281.119 171.914 279.949 171.88 278.676 171.845C277.437 171.811 276.216 171.794 275.011 171.794C273.257 171.794 271.571 171.828 269.953 171.897C268.371 171.931 267.184 171.966 266.392 172ZM287.089 154.916C286.229 154.916 285.541 154.675 285.024 154.194C284.508 153.712 284.25 153.092 284.25 152.335C284.25 151.819 284.336 151.372 284.508 150.994C284.68 150.581 284.852 150.202 285.024 149.858C285.196 149.48 285.282 149.118 285.282 148.774C285.282 148.017 284.801 147.639 283.837 147.639C283.115 147.639 282.375 147.811 281.618 148.155C280.895 148.499 280.224 148.981 279.605 149.6C279.02 150.185 278.573 150.873 278.263 151.665L278.16 149.497C278.986 147.948 280.104 146.744 281.515 145.884C282.925 145.024 284.405 144.594 285.953 144.594C287.571 144.594 288.844 145.075 289.773 146.039C290.736 146.968 291.218 148.258 291.218 149.91C291.218 151.424 290.839 152.645 290.082 153.574C289.325 154.469 288.328 154.916 287.089 154.916ZM306.931 172.723C304.35 172.723 302.096 172.172 300.17 171.071C298.277 169.935 296.815 168.318 295.782 166.219C294.75 164.12 294.234 161.626 294.234 158.735C294.234 155.708 294.785 153.144 295.886 151.045C296.987 148.946 298.535 147.346 300.531 146.245C302.527 145.144 304.866 144.594 307.55 144.594C309.959 144.594 312.006 145.041 313.692 145.935C315.378 146.796 316.651 148.155 317.511 150.013C318.372 151.871 318.767 154.28 318.699 157.239H299.344L299.292 155.277H312.247C312.281 153.591 312.127 152.112 311.782 150.839C311.473 149.531 310.957 148.499 310.234 147.742C309.511 146.985 308.565 146.606 307.395 146.606C305.916 146.606 304.643 147.329 303.576 148.774C302.544 150.219 301.924 152.508 301.718 155.639L301.821 155.845C301.787 156.155 301.77 156.499 301.77 156.877C301.77 157.256 301.77 157.686 301.77 158.168C301.77 161.574 302.406 164.241 303.679 166.168C304.987 168.095 306.879 169.058 309.357 169.058C311.043 169.058 312.505 168.645 313.744 167.819C315.017 166.959 316.084 165.652 316.944 163.897L318.802 164.929C317.804 167.441 316.29 169.368 314.26 170.71C312.23 172.052 309.787 172.723 306.931 172.723ZM357.359 172V169.987C358.529 169.953 359.32 169.677 359.733 169.161C360.18 168.611 360.404 167.647 360.404 166.271V153.368C360.404 151.578 360.06 150.219 359.372 149.29C358.718 148.361 357.737 147.897 356.43 147.897C355.294 147.897 354.21 148.258 353.178 148.981C352.18 149.703 351.303 150.856 350.546 152.439L350.236 150.581C351.2 148.516 352.49 147.002 354.107 146.039C355.724 145.075 357.496 144.594 359.423 144.594C362.038 144.594 364.034 145.419 365.41 147.071C366.821 148.688 367.526 151.028 367.526 154.09V166.271C367.526 167.647 367.888 168.611 368.61 169.161C369.333 169.677 370.606 169.953 372.43 169.987V172C371.914 171.966 371.191 171.948 370.262 171.948C369.333 171.914 368.335 171.88 367.268 171.845C366.202 171.811 365.152 171.794 364.12 171.794C362.812 171.794 361.522 171.828 360.249 171.897C358.976 171.931 358.012 171.966 357.359 172ZM322.83 172V169.987C324.688 169.953 325.961 169.677 326.649 169.161C327.372 168.611 327.733 167.647 327.733 166.271V151.871C327.733 150.254 327.354 149.118 326.597 148.465C325.875 147.776 324.619 147.398 322.83 147.329V145.316C323.587 145.351 324.326 145.385 325.049 145.419C325.772 145.454 326.494 145.471 327.217 145.471C328.696 145.471 330.055 145.419 331.294 145.316C332.567 145.178 333.754 144.989 334.855 144.748V166.271C334.855 167.647 335.062 168.611 335.475 169.161C335.922 169.677 336.714 169.953 337.849 169.987V172C337.161 171.966 336.215 171.931 335.01 171.897C333.84 171.828 332.619 171.794 331.346 171.794C329.832 171.794 328.266 171.828 326.649 171.897C325.066 171.931 323.793 171.966 322.83 172ZM341.049 172V169.987C342.184 169.953 342.959 169.677 343.372 169.161C343.819 168.611 344.043 167.647 344.043 166.271V153.368C344.043 151.578 343.698 150.219 343.01 149.29C342.357 148.361 341.376 147.897 340.068 147.897C338.967 147.897 337.952 148.224 337.023 148.877C336.094 149.497 335.286 150.443 334.597 151.716V149.445C335.458 147.897 336.61 146.71 338.055 145.884C339.535 145.024 341.221 144.594 343.114 144.594C345.729 144.594 347.724 145.402 349.101 147.019C350.477 148.602 351.165 150.908 351.165 153.935V166.271C351.165 167.647 351.389 168.611 351.836 169.161C352.283 169.677 353.092 169.953 354.262 169.987V172C353.643 171.966 352.714 171.931 351.475 171.897C350.236 171.828 348.997 171.794 347.759 171.794C346.486 171.794 345.212 171.828 343.939 171.897C342.666 171.931 341.703 171.966 341.049 172ZM379.103 180.103L378.483 178.658C380.341 178.039 381.769 177.213 382.767 176.181C383.765 175.183 384.264 174.133 384.264 173.032C384.264 172.241 383.971 171.845 383.386 171.845C383.008 171.845 382.543 171.931 381.993 172.103C381.477 172.31 380.875 172.413 380.186 172.413C379.051 172.413 378.122 172.069 377.399 171.381C376.711 170.658 376.367 169.712 376.367 168.542C376.367 167.269 376.814 166.254 377.709 165.497C378.604 164.705 379.756 164.31 381.167 164.31C382.853 164.31 384.161 164.895 385.09 166.065C386.053 167.234 386.535 168.852 386.535 170.916C386.535 173.187 385.916 175.08 384.677 176.594C383.438 178.142 381.58 179.312 379.103 180.103ZM403.642 172V169.987C405.466 169.953 406.739 169.677 407.461 169.161C408.184 168.645 408.545 167.682 408.545 166.271V151.871C408.545 150.323 408.184 149.204 407.461 148.516C406.773 147.794 405.5 147.398 403.642 147.329V145.316C404.33 145.351 405.036 145.385 405.758 145.419C406.481 145.454 407.203 145.471 407.926 145.471C409.406 145.471 410.782 145.419 412.055 145.316C413.363 145.178 414.567 144.989 415.668 144.748V166.271C415.668 167.682 416.029 168.645 416.752 169.161C417.474 169.677 418.748 169.953 420.571 169.987V172C420.055 171.966 419.332 171.948 418.403 171.948C417.509 171.914 416.511 171.88 415.41 171.845C414.343 171.811 413.277 171.794 412.21 171.794C410.593 171.794 408.958 171.828 407.307 171.897C405.689 171.931 404.468 171.966 403.642 172ZM411.9 140C410.765 140 409.75 139.639 408.855 138.916C407.995 138.194 407.565 137.213 407.565 135.974C407.565 134.701 407.995 133.703 408.855 132.981C409.75 132.258 410.765 131.897 411.9 131.897C413.036 131.897 414.034 132.258 414.894 132.981C415.788 133.703 416.236 134.684 416.236 135.923C416.236 137.196 415.788 138.194 414.894 138.916C414.034 139.639 413.036 140 411.9 140ZM422.582 183.923V181.91C424.441 181.875 425.714 181.583 426.402 181.032C427.124 180.516 427.486 179.57 427.486 178.194V151.871C427.486 150.254 427.107 149.101 426.35 148.413C425.628 147.725 424.372 147.363 422.582 147.329V145.316C423.339 145.351 424.079 145.385 424.802 145.419C425.524 145.454 426.281 145.471 427.073 145.471C429.86 145.471 432.372 145.23 434.608 144.748V177.781C434.608 179.26 435.09 180.31 436.053 180.929C437.051 181.548 438.703 181.875 441.008 181.91V183.923C440.355 183.888 439.477 183.854 438.376 183.819C437.275 183.819 436.088 183.802 434.815 183.768C433.542 183.733 432.303 183.716 431.099 183.716C429.309 183.716 427.641 183.733 426.092 183.768C424.578 183.837 423.408 183.888 422.582 183.923ZM440.957 172.723C439.236 172.723 437.757 172.43 436.518 171.845C435.279 171.226 434.385 170.383 433.834 169.316L434.195 167.458C434.643 168.318 435.296 168.989 436.157 169.471C437.017 169.953 437.98 170.194 439.047 170.194C441.249 170.194 442.901 169.213 444.002 167.252C445.137 165.256 445.705 162.331 445.705 158.477C445.705 154.933 445.223 152.249 444.26 150.426C443.296 148.602 441.868 147.69 439.976 147.69C438.737 147.69 437.585 148.086 436.518 148.877C435.451 149.634 434.694 150.615 434.247 151.819L433.989 150.116C434.608 148.43 435.675 147.088 437.189 146.09C438.737 145.092 440.544 144.594 442.608 144.594C444.776 144.594 446.651 145.161 448.234 146.297C449.817 147.398 451.038 148.963 451.899 150.994C452.759 153.024 453.189 155.449 453.189 158.271C453.189 161.265 452.69 163.845 451.692 166.013C450.729 168.181 449.335 169.849 447.511 171.019C445.688 172.155 443.503 172.723 440.957 172.723ZM471.105 172.723C469.625 172.723 468.387 172.568 467.389 172.258C466.391 171.948 465.565 171.639 464.911 171.329C464.258 171.019 463.673 170.865 463.157 170.865C462.331 170.865 461.729 171.398 461.35 172.465H459.337C459.441 171.535 459.509 170.589 459.544 169.626C459.578 168.628 459.595 167.527 459.595 166.323C459.595 165.084 459.595 163.673 459.595 162.09H461.557C462.142 164.912 463.174 167.045 464.653 168.49C466.167 169.935 468.094 170.658 470.434 170.658C471.982 170.658 473.187 170.331 474.047 169.677C474.907 168.989 475.337 168.043 475.337 166.839C475.337 165.669 474.856 164.705 473.892 163.948C472.963 163.191 471.294 162.452 468.886 161.729C465.789 160.8 463.518 159.596 462.073 158.116C460.628 156.602 459.905 154.744 459.905 152.542C459.905 150.133 460.696 148.206 462.279 146.761C463.896 145.316 466.047 144.594 468.731 144.594C470.107 144.594 471.277 144.748 472.241 145.058C473.204 145.333 474.013 145.643 474.666 145.987C475.355 146.297 475.939 146.452 476.421 146.452C476.765 146.452 477.058 146.331 477.299 146.09C477.539 145.815 477.746 145.419 477.918 144.903H479.931C479.862 145.626 479.81 146.4 479.776 147.226C479.742 148.017 479.707 148.946 479.673 150.013C479.673 151.08 479.69 152.404 479.724 153.987H477.711C477.195 151.647 476.215 149.841 474.77 148.568C473.359 147.295 471.673 146.658 469.711 146.658C468.335 146.658 467.251 146.968 466.46 147.587C465.703 148.206 465.324 149.101 465.324 150.271C465.324 151.475 465.841 152.473 466.873 153.265C467.905 154.056 469.694 154.83 472.241 155.587C475.234 156.413 477.402 157.514 478.744 158.89C480.12 160.267 480.808 162.073 480.808 164.31C480.808 166.959 479.948 169.024 478.228 170.503C476.507 171.983 474.133 172.723 471.105 172.723ZM497.956 172.723C495.272 172.723 493.207 171.914 491.762 170.297C490.317 168.645 489.595 166.288 489.595 163.226V151.871C489.595 150.254 489.216 149.101 488.459 148.413C487.736 147.725 486.481 147.363 484.691 147.329V145.316C485.414 145.351 486.136 145.385 486.859 145.419C487.582 145.454 488.339 145.471 489.13 145.471C490.575 145.471 491.917 145.419 493.156 145.316C494.395 145.178 495.582 144.989 496.717 144.748V163.948C496.717 165.738 497.078 167.097 497.801 168.026C498.524 168.955 499.59 169.419 501.001 169.419C502.102 169.419 503.117 169.11 504.046 168.49C504.975 167.837 505.784 166.89 506.472 165.652L506.42 167.923C505.595 169.437 504.442 170.624 502.962 171.484C501.517 172.31 499.848 172.723 497.956 172.723ZM506.214 172.568V151.819C506.214 150.202 505.904 149.067 505.285 148.413C504.666 147.725 503.599 147.363 502.085 147.329V145.316C502.739 145.351 503.392 145.385 504.046 145.419C504.7 145.454 505.371 145.471 506.059 145.471C507.47 145.471 508.777 145.419 509.982 145.316C511.186 145.178 512.304 144.989 513.336 144.748V165.445C513.336 167.062 513.698 168.215 514.42 168.903C515.177 169.591 516.45 169.953 518.24 169.987V172C517.517 171.931 516.795 171.897 516.072 171.897C515.349 171.862 514.61 171.845 513.853 171.845C512.407 171.845 511.048 171.897 509.775 172C508.502 172.138 507.315 172.327 506.214 172.568ZM555.484 172V169.987C556.654 169.953 557.445 169.677 557.858 169.161C558.305 168.611 558.529 167.647 558.529 166.271V153.368C558.529 151.578 558.185 150.219 557.497 149.29C556.843 148.361 555.862 147.897 554.555 147.897C553.419 147.897 552.335 148.258 551.303 148.981C550.305 149.703 549.428 150.856 548.671 152.439L548.361 150.581C549.325 148.516 550.615 147.002 552.232 146.039C553.849 145.075 555.621 144.594 557.548 144.594C560.163 144.594 562.159 145.419 563.535 147.071C564.946 148.688 565.651 151.028 565.651 154.09V166.271C565.651 167.647 566.013 168.611 566.735 169.161C567.458 169.677 568.731 169.953 570.555 169.987V172C570.039 171.966 569.316 171.948 568.387 171.948C567.458 171.914 566.46 171.88 565.393 171.845C564.327 171.811 563.277 171.794 562.245 171.794C560.937 171.794 559.647 171.828 558.374 171.897C557.101 171.931 556.137 171.966 555.484 172ZM520.955 172V169.987C522.813 169.953 524.086 169.677 524.774 169.161C525.497 168.611 525.858 167.647 525.858 166.271V151.871C525.858 150.254 525.479 149.118 524.722 148.465C524 147.776 522.744 147.398 520.955 147.329V145.316C521.712 145.351 522.451 145.385 523.174 145.419C523.897 145.454 524.619 145.471 525.342 145.471C526.821 145.471 528.18 145.419 529.419 145.316C530.692 145.178 531.879 144.989 532.98 144.748V166.271C532.98 167.647 533.187 168.611 533.6 169.161C534.047 169.677 534.839 169.953 535.974 169.987V172C535.286 171.966 534.34 171.931 533.135 171.897C531.965 171.828 530.744 171.794 529.471 171.794C527.957 171.794 526.391 171.828 524.774 171.897C523.191 171.931 521.918 171.966 520.955 172ZM539.174 172V169.987C540.309 169.953 541.084 169.677 541.497 169.161C541.944 168.611 542.168 167.647 542.168 166.271V153.368C542.168 151.578 541.823 150.219 541.135 149.29C540.482 148.361 539.501 147.897 538.193 147.897C537.092 147.897 536.077 148.224 535.148 148.877C534.219 149.497 533.411 150.443 532.722 151.716V149.445C533.583 147.897 534.735 146.71 536.18 145.884C537.66 145.024 539.346 144.594 541.239 144.594C543.854 144.594 545.849 145.402 547.226 147.019C548.602 148.602 549.29 150.908 549.29 153.935V166.271C549.29 167.647 549.514 168.611 549.961 169.161C550.408 169.677 551.217 169.953 552.387 169.987V172C551.768 171.966 550.839 171.931 549.6 171.897C548.361 171.828 547.122 171.794 545.884 171.794C544.611 171.794 543.337 171.828 542.064 171.897C540.791 171.931 539.828 171.966 539.174 172ZM332.877 249.568V215.71C332.877 214.092 332.516 212.957 331.793 212.303C331.071 211.615 329.815 211.237 328.026 211.168V209.155C328.783 209.189 329.505 209.224 330.193 209.258C330.916 209.292 331.673 209.31 332.464 209.31C333.875 209.31 335.217 209.258 336.49 209.155C337.763 209.017 338.95 208.828 340.051 208.587V242.445C340.051 244.028 340.413 245.181 341.135 245.903C341.858 246.591 343.114 246.953 344.903 246.987V249C344.18 248.931 343.458 248.897 342.735 248.897C342.013 248.862 341.256 248.845 340.464 248.845C339.054 248.845 337.712 248.897 336.439 249C335.165 249.138 333.978 249.327 332.877 249.568ZM325.187 249.723C322.95 249.723 321.023 249.172 319.406 248.071C317.789 246.935 316.533 245.335 315.639 243.271C314.744 241.206 314.297 238.746 314.297 235.89C314.297 232.897 314.778 230.333 315.742 228.2C316.74 226.067 318.15 224.432 319.974 223.297C321.798 222.161 323.965 221.594 326.477 221.594C328.266 221.594 329.798 221.92 331.071 222.574C332.344 223.228 333.239 224.054 333.755 225.052L333.445 226.858C333.032 226.067 332.395 225.43 331.535 224.948C330.675 224.432 329.66 224.174 328.49 224.174C326.322 224.174 324.671 225.138 323.535 227.065C322.4 228.991 321.832 231.847 321.832 235.632C321.832 239.211 322.331 241.946 323.329 243.839C324.361 245.697 325.858 246.626 327.819 246.626C329.058 246.626 330.142 246.23 331.071 245.439C332.034 244.647 332.757 243.529 333.239 242.084L333.497 243.942C332.912 245.766 331.897 247.194 330.451 248.226C329.041 249.224 327.286 249.723 325.187 249.723ZM361.999 249.723C359.418 249.723 357.13 249.224 355.134 248.226C353.138 247.194 351.573 245.645 350.437 243.581C349.302 241.482 348.734 238.849 348.734 235.684C348.734 232.518 349.302 229.886 350.437 227.787C351.573 225.688 353.138 224.14 355.134 223.142C357.13 222.11 359.418 221.594 361.999 221.594C364.614 221.594 366.902 222.11 368.863 223.142C370.824 224.14 372.373 225.688 373.508 227.787C374.644 229.886 375.211 232.518 375.211 235.684C375.211 238.849 374.644 241.482 373.508 243.581C372.373 245.645 370.824 247.194 368.863 248.226C366.902 249.224 364.614 249.723 361.999 249.723ZM361.999 247.71C363.65 247.71 365.009 246.763 366.076 244.871C367.177 242.944 367.728 239.882 367.728 235.684C367.728 231.417 367.177 228.338 366.076 226.445C365.009 224.518 363.65 223.555 361.999 223.555C360.313 223.555 358.936 224.518 357.87 226.445C356.803 228.338 356.27 231.417 356.27 235.684C356.27 239.882 356.803 242.944 357.87 244.871C358.936 246.763 360.313 247.71 361.999 247.71ZM379.02 249V246.987C380.844 246.953 382.117 246.677 382.839 246.161C383.562 245.645 383.923 244.682 383.923 243.271V215.71C383.923 214.161 383.562 213.043 382.839 212.355C382.151 211.632 380.878 211.237 379.02 211.168V209.155C379.743 209.189 380.465 209.224 381.188 209.258C381.91 209.292 382.616 209.31 383.304 209.31C384.783 209.31 386.177 209.258 387.484 209.155C388.792 209.017 389.979 208.828 391.046 208.587V243.271C391.046 244.682 391.407 245.645 392.13 246.161C392.887 246.677 394.16 246.953 395.949 246.987V249C395.433 248.966 394.71 248.948 393.781 248.948C392.887 248.914 391.889 248.88 390.788 248.845C389.721 248.811 388.654 248.794 387.588 248.794C386.005 248.794 384.388 248.828 382.736 248.897C381.084 248.931 379.846 248.966 379.02 249ZM412.999 249.723C410.418 249.723 408.13 249.224 406.134 248.226C404.138 247.194 402.573 245.645 401.437 243.581C400.302 241.482 399.734 238.849 399.734 235.684C399.734 232.518 400.302 229.886 401.437 227.787C402.573 225.688 404.138 224.14 406.134 223.142C408.13 222.11 410.418 221.594 412.999 221.594C415.614 221.594 417.902 222.11 419.863 223.142C421.824 224.14 423.373 225.688 424.508 227.787C425.644 229.886 426.211 232.518 426.211 235.684C426.211 238.849 425.644 241.482 424.508 243.581C423.373 245.645 421.824 247.194 419.863 248.226C417.902 249.224 415.614 249.723 412.999 249.723ZM412.999 247.71C414.65 247.71 416.009 246.763 417.076 244.871C418.177 242.944 418.728 239.882 418.728 235.684C418.728 231.417 418.177 228.338 417.076 226.445C416.009 224.518 414.65 223.555 412.999 223.555C411.313 223.555 409.936 224.518 408.87 226.445C407.803 228.338 407.27 231.417 407.27 235.684C407.27 239.882 407.803 242.944 408.87 244.871C409.936 246.763 411.313 247.71 412.999 247.71ZM430.517 249V246.987C432.375 246.953 433.648 246.677 434.336 246.161C435.059 245.611 435.42 244.647 435.42 243.271V228.871C435.42 227.254 435.042 226.118 434.285 225.465C433.562 224.776 432.306 224.398 430.517 224.329V222.316C431.481 222.351 432.289 222.385 432.943 222.419C433.631 222.454 434.371 222.471 435.162 222.471C437.984 222.471 440.444 222.23 442.543 221.748V242.858C442.543 244.372 443.007 245.439 443.936 246.058C444.9 246.643 446.569 246.953 448.943 246.987V249C448.289 248.966 447.412 248.948 446.311 248.948C445.244 248.914 444.074 248.88 442.801 248.845C441.562 248.811 440.341 248.794 439.136 248.794C437.382 248.794 435.696 248.828 434.078 248.897C432.496 248.931 431.309 248.966 430.517 249ZM451.214 231.916C450.354 231.916 449.666 231.675 449.149 231.194C448.633 230.712 448.375 230.092 448.375 229.335C448.375 228.819 448.461 228.372 448.633 227.994C448.805 227.581 448.977 227.202 449.149 226.858C449.321 226.48 449.407 226.118 449.407 225.774C449.407 225.017 448.926 224.639 447.962 224.639C447.24 224.639 446.5 224.811 445.743 225.155C445.02 225.499 444.349 225.981 443.73 226.6C443.145 227.185 442.698 227.873 442.388 228.665L442.285 226.497C443.111 224.948 444.229 223.744 445.64 222.884C447.05 222.024 448.53 221.594 450.078 221.594C451.696 221.594 452.969 222.075 453.898 223.039C454.861 223.968 455.343 225.258 455.343 226.91C455.343 228.424 454.964 229.645 454.207 230.574C453.45 231.469 452.453 231.916 451.214 231.916Z" fill="white"/>
</svg>
